name Walk10.mot
datacolumns 19
datarows 20
range 2.30000000 2.39500000
endheader

                time	   L_ground_force_vx	   L_ground_force_vy	   L_ground_force_vz	   L_ground_force_px	   L_ground_force_py	   L_ground_force_pz	   R_ground_force_vx	   R_ground_force_vy	   R_ground_force_vz	   R_ground_force_px	   R_ground_force_py	   R_ground_force_pz	   L_ground_torque_x	   L_ground_torque_y	   L_ground_torque_z	   R_ground_torque_x	   R_ground_torque_y	   R_ground_torque_z	
          2.30000000	          0.00000023	          0.00000068	         -0.00000002	         -0.00000000	          0.00000000	         -0.00000000	         20.86399212	        105.57304370	          5.33495625	          0.34751045	          0.00000000	          0.06128266	          0.00000000	          0.00000000	          0.00000000	          0.00000000	         -4.97011251	          0.00000000	
          2.30500000	          0.00000016	          0.00000048	         -0.00000002	         -0.00000000	          0.00000000	         -0.00000000	         13.22797389	         76.48066881	          4.24887477	          0.32813550	          0.00000000	          0.05719045	          0.00000000	          0.00000000	          0.00000000	          0.00000000	         -3.41362657	          0.00000000	
          2.31000000	          0.00000011	          0.00000032	         -0.00000002	         -0.00000000	          0.00000000	         -0.00000000	          6.99378943	         52.68893476	          3.08798720	          0.30204212	          0.00000000	          0.05208229	          0.00000000	          0.00000000	          0.00000000	          0.00000000	         -2.10826384	          0.00000000	
          2.31500000	          0.00000007	          0.00000019	         -0.00000002	         -0.00000000	          0.00000000	         -0.00000000	          2.23910275	         33.76880160	          2.01170457	          0.26919884	          0.00000000	          0.04595895	          0.00000000	          0.00000000	          0.00000000	          0.00000000	         -1.07656722	          0.00000000	
          2.32000000	          0.00000003	          0.00000009	         -0.00000001	         -0.00000000	          0.00000000	         -0.00000000	         -1.08254385	         19.16900871	          1.12422602	          0.23054365	          0.00000000	          0.03899562	          0.00000000	         -0.00000000	          0.00000000	          0.00000000	         -0.31658731	          0.00000000	
          2.32500000	          0.00000001	          0.00000002	         -0.00000001	         -0.00000000	          0.00000000	         -0.00000000	         -3.14738397	          8.33041511	          0.45885944	          0.18842026	          0.00000000	          0.03158937	          0.00000000	         -0.00000000	          0.00000000	          0.00000000	          0.19857126	          0.00000000	
          2.33000000	         -0.00000001	         -0.00000003	         -0.00000001	         -0.00000000	          0.00000000	         -0.00000000	         -4.22325997	          0.72222431	         -0.00433312	          0.14654067	          0.00000000	          0.02434699	          0.00000000	         -0.00000000	          0.00000000	          0.00000000	          0.51331329	          0.00000000	
          2.33500000	         -0.00000002	         -0.00000005	         -0.00000000	         -0.00000000	          0.00000000	         -0.00000000	         -4.57918962	         -4.21388027	         -0.30102685	          0.10809451	          0.00000000	          0.01777703	          0.00000000	         -0.00000000	          0.00000000	          0.00000000	          0.67455438	          0.00000000	
          2.34000000	         -0.00000002	         -0.00000007	         -0.00000000	         -0.00000000	          0.00000000	         -0.00000000	         -4.44528187	         -7.04604154	         -0.46748320	          0.07489077	          0.00000000	          0.01215790	          0.00000000	         -0.00000000	          0.00000000	          0.00000000	          0.72460608	          0.00000000	
          2.34500000	         -0.00000002	         -0.00000007	         -0.00000000	         -0.00000000	          0.00000000	         -0.00000000	         -4.00784138	         -8.30499501	         -0.53725617	          0.04767489	          0.00000000	          0.00759292	          0.00000000	         -0.00000000	          0.00000000	          0.00000000	          0.69939568	          0.00000000	
          2.35000000	         -0.00000002	         -0.00000007	         -0.00000000	          0.00000000	          0.00000000	         -0.00000000	         -3.41034748	         -8.45551279	         -0.53950975	          0.02645137	          0.00000000	          0.00406497	          0.00000000	         -0.00000000	          0.00000000	          0.00000000	          0.62791500	          0.00000000	
          2.35500000	         -0.00000002	         -0.00000006	          0.00000000	          0.00000000	          0.00000000	          0.00000000	         -2.75746896	         -7.88330811	         -0.49828623	          0.01074916	          0.00000000	          0.00148108	          0.00000000	         -0.00000000	          0.00000000	          0.00000000	          0.53241534	          0.00000000	
          2.36000000	         -0.00000002	         -0.00000005	          0.00000000	          0.00000000	          0.00000000	          0.00000000	         -2.12070816	         -6.89288998	         -0.43244197	         -0.00017050	          0.00000000	         -0.00029305	          0.00000000	         -0.00000000	          0.00000000	          0.00000000	          0.42906564	          0.00000000	
          2.36500000	         -0.00000001	         -0.00000004	          0.00000000	          0.00000000	          0.00000000	          0.00000000	         -1.54464342	         -5.71260976	         -0.35601639	         -0.00715958	          0.00000000	         -0.00140760	          0.00000000	         -0.00000000	          0.00000000	          0.00000000	          0.32885558	          0.00000000	
          2.37000000	         -0.00000001	         -0.00000003	          0.00000000	          0.00000000	          0.00000000	          0.00000000	         -1.05306165	         -4.50392057	         -0.27884956	         -0.01107530	          0.00000000	         -0.00201101	          0.00000000	         -0.00000000	          0.00000000	          0.00000000	          0.23858431	          0.00000000	
          2.37500000	         -0.00000001	         -0.00000002	          0.00000000	          0.00000000	          0.00000000	          0.00000000	         -0.65453534	         -3.37260594	         -0.20731033	         -0.01271046	          0.00000000	         -0.00223891	          0.00000000	         -0.00000000	          0.00000000	          0.00000000	          0.16182595	          0.00000000	
          2.38000000	         -0.00000001	         -0.00000001	          0.00000000	          0.00000000	          0.00000000	          0.00000000	         -0.34720230	         -2.38038344	         -0.14503787	         -0.01275381	          0.00000000	         -0.00220800	          0.00000000	         -0.00000000	          0.00000000	          0.00000000	          0.09980383	          0.00000000	
          2.38500000	         -0.00000000	         -0.00000001	          0.00000000	          0.00000000	          0.00000000	          0.00000000	         -0.12265608	         -1.55583083	         -0.09363301	         -0.01177294	          0.00000000	         -0.00201354	          0.00000000	         -0.00000000	          0.00000000	          0.00000000	          0.05213697	          0.00000000	
          2.39000000	         -0.00000000	         -0.00000000	          0.00000000	          0.00000000	          0.00000000	          0.00000000	          0.03104168	         -0.90401380	         -0.05326283	         -0.01021283	          0.00000000	         -0.00172960	          0.00000000	          0.00000000	          0.00000000	          0.00000000	          0.01744573	          0.00000000	
          2.39500000	         -0.00000000	         -0.00000000	          0.00000000	          0.00000000	          0.00000000	          0.00000000	          0.12715005	         -0.41451961	         -0.02316177	         -0.00840465	          0.00000000	         -0.00141072	          0.00000000	          0.00000000	          0.00000000	          0.00000000	         -0.00618083	          0.00000000	
